# xmcd
#
# Track frame offsets:
#	150
#	12699
#	26873
#	41121
#	54368
#	69241
#	84220
#	95486
#	109532
#	118739
#	130558
#	144223
#	157173
#	169923
#
# Disc length: 2495 seconds
#
# Revision: 1
# Processed by: cddbd v1.5.2PL0 Copyright (c) Steve Scherf et al.
# Submitted via: audiograbber 1.83.01
#
DISCID=b609bd0e
DTITLE=Pavel Bobek - Víc nehledám
DYEAR=2010
DGENRE=Country
TTITLE0=Vic nehledam
TTITLE1=Dokud budu zit
TTITLE2=Desperat
TTITLE3=To ja nejsem
TTITLE4=Kdo o me bude stat
TTITLE5=Divka ze severu
TTITLE6=Velka reka
TTITLE7=Nenos kolty do mesta
TTITLE8=Co nadelas
TTITLE9=Pohadka o divce snu
TTITLE10=Dlouhy sal
TTITLE11=Tenhle splin
TTITLE12=Stesti me jsi ty
TTITLE13=Nedelni rano
EXTD=
EXTT0=
EXTT1=
EXTT2=
EXTT3=
EXTT4=
EXTT5=
EXTT6=
EXTT7=
EXTT8=
EXTT9=
EXTT10=
EXTT11=
EXTT12=
EXTT13=
PLAYORDER=
